<svg width="64" height="64" viewBox="0 0 64 64" fill="none" xmlns="http://www.w3.org/2000/svg">
  <rect width="64" height="64" rx="12" fill="#f9f7f3"/>
  <path d="M16 16C16 14.8954 16.8954 14 18 14H46C47.1046 14 48 14.8954 48 16V48C48 49.1046 47.1046 50 46 50H18C16.8954 50 16 49.1046 16 48V16Z" fill="#ecdfd2"/>
  <path d="M32 18C38.6274 18 44 23.3726 44 30C44 36.6274 38.6274 42 32 42C25.3726 42 20 36.6274 20 30C20 23.3726 25.3726 18 32 18ZM32 22C27.5817 22 24 25.5817 24 30C24 34.4183 27.5817 38 32 38C36.4183 38 40 34.4183 40 30C40 25.5817 36.4183 22 32 22Z" fill="#9c7c5b"/>
  <path d="M32 26C34.2091 26 36 27.7909 36 30C36 32.2091 34.2091 34 32 34C29.7909 34 28 32.2091 28 30C28 27.7909 29.7909 26 32 26Z" fill="#cb997e"/>
</svg> 